<svg xmlns="http://www.w3.org/2000/svg" width="400" height="267" viewBox="0 0 400 267" version="1.1">
	<rect x="0" y="0" width="100%" height="100%" fill="#fff" />
	<path d="M 393.292 40.148 L 393.904 80.297 397.052 84.215 C 401.386 89.608, 400.180 89.990, 395.296 84.770 C 393.098 82.422, 390.051 79.375, 388.526 78 L 385.752 75.500 386.541 78 C 386.974 79.375, 387.277 85.437, 387.214 91.471 C 387.134 99.032, 387.471 102.680, 388.299 103.206 C 388.959 103.626, 375.775 104.030, 359 104.103 C 342.225 104.176, 327.174 104.521, 325.553 104.868 C 323.933 105.216, 336.833 105.500, 354.220 105.500 C 371.607 105.500, 386.115 105.782, 386.459 106.126 C 388.113 107.779, 388.249 114, 386.631 114 C 385.734 114, 385 114.450, 385 115 C 385 115.550, 385.849 116, 386.887 116 C 389.544 116, 390.427 122.010, 388.018 123.699 C 385.910 125.177, 385.627 130.445, 387.569 132.057 C 389.609 133.751, 389.339 135.242, 387.118 134.538 C 385.931 134.161, 385.020 134.505, 384.650 135.470 C 384.327 136.312, 384.547 137, 385.140 137 C 385.742 137, 385.991 137.992, 385.703 139.250 C 385.421 140.488, 385.566 142.400, 386.025 143.500 C 386.702 145.123, 386.876 144.841, 386.945 142 C 387.078 136.550, 388.966 140.483, 388.985 146.250 C 388.995 149.523, 388.611 150.922, 387.750 150.750 C 386.866 150.573, 386.551 151.963, 386.673 155.500 C 386.959 163.808, 384.733 156.271, 384.156 146.983 C 383.908 142.981, 375.624 134.245, 370.861 132.963 C 368.639 132.364, 354.668 131.705, 339.668 131.490 C 324.726 131.276, 308 130.690, 302.500 130.188 C 297 129.686, 277.200 129.394, 258.500 129.540 C 239.800 129.686, 222.764 129.436, 220.641 128.984 L 216.783 128.164 217.366 131.082 C 217.687 132.687, 217.624 134.034, 217.225 134.077 C 216.826 134.119, 215.744 134.299, 214.819 134.478 C 213.719 134.691, 213.324 134.319, 213.676 133.401 C 213.972 132.631, 213.716 132, 213.107 132 C 212.498 132, 212 133.623, 212 135.607 C 212 138.402, 212.338 139.084, 213.500 138.638 C 215.482 137.878, 215.407 138.346, 212.750 143.299 C 210.126 148.193, 209.214 149.005, 206.500 148.869 C 204.802 148.783, 204.766 148.699, 206.264 148.308 C 207.234 148.055, 208.670 146.605, 209.456 145.086 L 210.884 142.323 205.958 143.601 C 201.089 144.864, 200.997 144.844, 198.016 141.862 C 194.645 138.492, 194.427 138, 196.301 138 C 198.703 138, 202.984 135.514, 202.992 134.114 C 202.998 133.044, 201.963 132.870, 198.448 133.352 C 195.431 133.766, 194.112 133.628, 194.535 132.944 C 194.885 132.377, 194.645 131.277, 194 130.500 C 192.485 128.674, 193.294 127.471, 198.064 124.459 C 202.855 121.435, 204.353 121.389, 206.961 124.189 C 209.360 126.764, 209.355 126.788, 207.628 121.012 C 204.601 110.885, 186 114.553, 186 125.277 L 186 128.708 173.279 129.415 C 166.277 129.804, 159.939 130.636, 159.180 131.266 C 158.421 131.895, 155.933 132.324, 153.650 132.219 C 149.982 132.049, 149.783 132.146, 151.935 133.050 C 153.274 133.612, 154.961 133.845, 155.685 133.567 C 156.408 133.290, 157 133.461, 157 133.948 C 157 134.435, 156.472 135.009, 155.826 135.225 C 155.180 135.440, 156.122 136.663, 157.918 137.942 C 160.450 139.745, 160.883 140.480, 159.842 141.210 C 158.795 141.945, 158.775 142.264, 159.750 142.659 C 160.438 142.938, 161 143.634, 161 144.206 C 161 144.820, 160.367 144.720, 159.454 143.962 C 158.604 143.257, 158.122 142.125, 158.382 141.446 C 159.062 139.676, 155.266 136.462, 149.667 134.067 C 139.684 129.797, 127.376 132.443, 122.769 139.851 L 120.500 143.500 120 134 C 119.695 128.198, 119.167 125.016, 118.644 125.826 C 118.174 126.555, 118.081 129.489, 118.438 132.346 C 118.997 136.823, 119.083 146.131, 118.670 157.634 C 118.595 159.738, 118.137 160.606, 117.279 160.277 C 116.292 159.898, 115.951 153.699, 115.787 133.143 C 115.581 107.418, 115.554 107.086, 115 123.500 C 114.440 140.102, 114.421 139.887, 114.213 114.309 C 114.096 99.904, 113.637 87.894, 113.193 87.619 C 112.749 87.345, 112.499 90.131, 112.637 93.810 C 113.015 103.838, 112.906 104, 105.766 104 C 98.156 104, 98.823 105.104, 106.642 105.451 L 112.422 105.707 112.700 132.774 L 112.978 159.841 108.766 161.245 C 105.135 162.455, 104.170 163.427, 101.770 168.293 C 98.807 174.302, 95.601 177.001, 93.693 175.093 C 91.775 173.175, 90.268 173.911, 89.636 177.071 C 89.138 179.559, 88.650 180.024, 87.061 179.519 C 82.364 178.029, 76.938 183.831, 78.269 188.920 C 78.669 190.449, 78.119 190.884, 75.385 191.203 C 71.516 191.655, 70.514 190.057, 70.765 183.836 C 70.950 179.251, 68.412 176.511, 67.467 180.276 C 67.019 182.060, 65.753 183.057, 62.822 183.935 C 60.605 184.599, 58.051 185.423, 57.146 185.765 C 54.959 186.593, 57.504 183.927, 60.500 182.252 C 62.352 181.217, 62.369 181.084, 60.737 180.455 C 59.768 180.082, 58.336 180.306, 57.556 180.954 C 56.387 181.924, 56.065 181.547, 55.728 178.816 C 55.412 176.250, 55.284 176.599, 55.160 180.357 C 55.033 184.225, 54.695 185.097, 53.500 184.638 C 52.439 184.231, 52 184.725, 52 186.327 C 52 188.231, 50.965 188.929, 45.500 190.706 C 41.925 191.868, 39 192.644, 39 192.430 C 39 191.994, 47.359 187.621, 47.750 187.852 C 47.888 187.933, 48 187.775, 48 187.500 C 48 187.225, 48 185.183, 48 182.962 C 48 179.192, 47.825 178.943, 45.361 179.212 C 43.148 179.453, 42.513 178.934, 41.437 176 C 40.730 174.075, 40.111 172.950, 40.061 173.500 C 39.838 175.941, 38.029 171.151, 38.015 168.083 C 37.979 160.019, 37.030 166.660, 36.448 179.043 C 35.726 194.423, 35.007 197.307, 34.985 184.917 C 34.976 180.287, 34.628 175.962, 34.210 175.305 C 33.792 174.648, 33.442 175.998, 33.431 178.305 C 33.374 190.590, 32.675 195.114, 30.611 196.560 C 28.011 198.381, 25.882 198.405, 28.281 196.586 C 30.134 195.180, 29.805 187, 27.895 187 C 27.428 187, 27.228 183.585, 27.450 179.411 C 27.828 172.300, 27.746 171.920, 26.142 173.371 C 24.587 174.779, 24.317 174.737, 23.183 172.921 C 22.496 171.822, 21.499 171.191, 20.967 171.520 C 20.435 171.849, 20 171.228, 20 170.141 C 20 166.842, 18.886 165, 16.893 165 C 14.796 165, 14.809 165.027, 14.505 159.780 C 14.386 157.734, 14.674 156.299, 15.145 156.589 C 15.615 156.880, 16 156.416, 16 155.559 C 16 154.194, 20.470 153.285, 24.250 153.882 C 24.663 153.947, 25 153.581, 25 153.070 C 25 152.558, 25.961 151.995, 27.135 151.820 C 29.962 151.397, 33.088 147, 30.563 147 C 29.552 147, 29.165 147.458, 29.592 148.149 C 30.112 148.990, 28.897 149.111, 25.056 148.602 C 18.867 147.781, 10.090 148.809, 12.149 150.113 C 12.892 150.584, 13.009 150.976, 12.409 150.985 C 11.699 150.995, 11.524 152.488, 11.909 155.250 C 12.234 157.588, 12.257 166.475, 11.960 175 L 11.421 190.500 11.140 176.500 C 10.642 151.663, 8.809 166.569, 8.715 196.214 C 8.703 199.907, 8.345 202.713, 7.918 202.450 C 7.492 202.186, 6.998 202.847, 6.821 203.918 C 6.533 205.667, 6.302 205.719, 4.550 204.426 C 2.746 203.095, 2.569 201.389, 2.197 181.743 C 1.975 170.059, 1.391 160.073, 0.897 159.550 C 0.367 158.989, 0 180.771, 0 212.802 L 0 267.005 200.250 266.752 L 400.500 266.500 400.224 139.500 C 400.071 69.650, 399.959 9.688, 399.974 6.250 L 400 0 396.340 -0 L 392.680 -0 393.292 40.148 M 94.273 23.113 C 88.475 24.788, 87.342 30.564, 92.691 31.178 C 94.809 31.421, 95.528 32.060, 95.615 33.775 C 95.764 36.746, 94.553 37.410, 92.581 35.438 C 91.140 33.997, 91 34.074, 91 36.306 C 91 37.653, 90.314 39.324, 89.476 40.020 C 88.638 40.716, 88.176 41.510, 88.451 41.784 C 88.725 42.059, 89.788 41.248, 90.813 39.983 C 93.018 37.259, 95 38.056, 95 41.666 C 95 43.416, 95.430 44.049, 96.374 43.687 C 97.163 43.384, 98.299 44.190, 99.043 45.580 C 99.755 46.911, 100.782 48, 101.324 48 C 101.866 48, 101.456 46.987, 100.412 45.750 L 98.514 43.500 101.007 45.633 C 104.216 48.379, 109.414 51, 111.650 51 C 112.957 51, 113.112 51.288, 112.264 52.136 C 111.416 52.984, 110.034 52.741, 106.814 51.178 L 102.500 49.084 105.288 51.360 C 107.165 52.892, 107.866 54.186, 107.431 55.318 C 106.753 57.086, 105 57.645, 105 56.094 C 105 55.595, 104.105 55.421, 103.011 55.707 C 100.716 56.308, 101.300 57.995, 103.809 58.010 C 104.829 58.016, 106.164 59.601, 107.175 62.008 C 108.136 64.297, 109.414 65.853, 110.175 65.661 C 110.904 65.478, 111.188 65.508, 110.806 65.729 C 109.882 66.262, 110.971 69, 112.107 69 C 112.598 69, 113 68.100, 113 67 C 113 65.597, 113.672 64.995, 115.250 64.985 C 119.952 64.953, 120.784 63.376, 121.175 53.750 C 121.237 52.237, 121.679 51, 122.158 51 C 123.998 51, 129.921 46.403, 131.480 43.765 C 133.568 40.230, 132.614 40.223, 129.392 43.750 C 127.175 46.177, 127.012 46.229, 128.006 44.191 C 128.630 42.914, 128.841 40.457, 128.480 38.691 C 127.831 35.525, 127.839 35.517, 129.470 37.750 C 131.625 40.701, 133 40.604, 133 37.500 C 133 36.125, 132.550 35, 132 35 C 131.450 35, 131.113 34.494, 131.250 33.875 C 131.676 31.957, 129.196 31.781, 128.700 33.695 C 128.273 35.342, 128.222 35.332, 128.116 33.579 C 127.908 30.129, 125.135 27.981, 122.463 29.199 C 120.573 30.060, 119.410 29.849, 116.468 28.114 C 108.192 23.231, 100.142 21.417, 94.273 23.113 M 196.146 159.142 C 194.623 159.705, 194.023 160.743, 194.079 162.718 C 194.122 164.248, 194.385 164.938, 194.662 164.250 C 195.352 162.542, 199 162.662, 199 164.393 C 199 165.890, 201.090 167, 203.907 167 C 204.867 167, 206.657 168.070, 207.885 169.378 C 211.530 173.257, 216.369 170.427, 213.919 165.849 C 213.324 164.738, 213.035 163.632, 213.276 163.391 C 214.215 162.452, 216.830 164.242, 217.334 166.170 C 217.646 167.364, 218.333 167.912, 219.001 167.499 C 219.625 167.113, 219.914 166.219, 219.643 165.512 C 219.317 164.661, 219.778 164.391, 221.006 164.712 C 222.177 165.018, 222.675 165.806, 222.355 166.849 C 221.929 168.238, 222.027 168.222, 222.974 166.750 C 224.669 164.114, 227.357 164.641, 229.341 168 C 230.316 169.650, 231.763 171, 232.557 171 C 233.350 171, 234 171.675, 234 172.500 C 234 174.448, 236.399 174.429, 238.026 172.469 C 239.075 171.205, 238.980 170.706, 237.486 169.613 C 236.293 168.741, 235.912 167.671, 236.370 166.477 C 236.900 165.096, 237.343 164.943, 238.233 165.833 C 239.885 167.485, 245 167.326, 245 165.622 C 245 162.397, 242.243 161.725, 231.992 162.452 C 223.446 163.058, 221.912 162.935, 221.403 161.607 C 221.075 160.753, 219.388 159.836, 217.653 159.568 C 211.515 158.621, 198.263 158.359, 196.146 159.142 M 380 162.965 C 376.412 166.892, 369.582 169.647, 365.853 168.672 C 364.159 168.229, 364.003 168.887, 364.032 176.344 C 364.058 182.955, 364.294 184.201, 365.282 182.924 C 366.947 180.768, 370.326 180.039, 372.608 181.342 C 373.649 181.936, 374.950 182.501, 375.500 182.596 C 380.625 183.485, 381.500 183.398, 381.500 182 C 381.500 181.175, 380.866 180.636, 380.092 180.803 C 378.761 181.089, 377.049 179.390, 377.015 177.750 C 377.007 177.338, 377.788 176.924, 378.750 176.832 C 379.712 176.739, 377.800 176.365, 374.500 176 L 368.500 175.336 375 175.157 C 385.171 174.877, 389.247 174.002, 387.907 172.388 C 387.123 171.443, 386.257 171.327, 385 172 C 383.729 172.680, 382.869 172.547, 382.032 171.538 C 381.384 170.758, 380.257 170.348, 379.528 170.628 C 378.799 170.907, 377.937 170.707, 377.613 170.183 C 377.289 169.658, 378.154 169.013, 379.536 168.748 C 380.917 168.484, 382.340 168.741, 382.696 169.318 C 383.622 170.815, 384.846 167.216, 384.930 162.750 C 385.017 158.113, 384.409 158.140, 380 162.965 M 167.408 171.148 C 164.918 175.178, 167.179 191, 171.656 200.875 C 173.495 204.931, 175 208.614, 175 209.060 C 175 209.505, 175.455 211.067, 176.012 212.531 L 177.024 215.192 178.762 213.099 C 182.793 208.245, 193.765 211.360, 192.304 216.944 C 192.027 218.005, 192.797 220.646, 194.016 222.814 L 196.231 226.756 205.366 226.889 C 211.726 226.981, 214.044 226.719, 213 226.026 C 212.132 225.450, 211.992 225.024, 212.668 225.015 C 213.311 225.007, 215.713 223.088, 218.007 220.750 C 223.723 214.924, 225.732 212.560, 224.250 213.405 C 223.563 213.797, 223 213.641, 223 213.059 C 223 212.477, 223.723 212, 224.607 212 C 225.620 212, 226.003 211.449, 225.642 210.510 C 224.373 207.203, 235.478 207.313, 239.159 210.644 C 240.210 211.595, 240.835 212.988, 240.547 213.739 C 240.259 214.490, 240.433 214.850, 240.935 214.540 C 241.436 214.231, 242.143 212.520, 242.505 210.739 C 245.810 194.491, 247.222 190, 249.024 190 C 250.046 190, 251.160 189.550, 251.500 189 C 251.853 188.428, 250.969 188, 249.434 188 C 246.961 188, 246.799 187.754, 247.375 184.875 C 247.719 183.156, 248 181.304, 248 180.758 C 248 180.213, 248.900 180.002, 250 180.290 C 251.100 180.577, 252 180.405, 252 179.906 C 252 179.408, 251.325 179, 250.500 179 C 249.675 179, 248.993 178.213, 248.985 177.250 C 248.950 173.309, 247.571 173.046, 242.731 176.059 C 237.415 179.368, 233.677 180.180, 236.429 177.429 C 238.651 175.206, 238.540 175.160, 233.250 176.120 C 228.130 177.048, 227.763 177.397, 222.197 186.642 C 220.164 190.020, 217.272 194.205, 215.772 195.942 L 213.044 199.101 204.800 197.973 C 194.719 196.592, 195.788 197.324, 192.480 189.541 C 190.963 185.973, 189.340 183.290, 188.873 183.579 C 188.405 183.868, 188.276 183.444, 188.586 182.637 C 189.235 180.946, 182.822 173.396, 179.967 172.490 C 175.866 171.188, 167.909 170.338, 167.408 171.148" stroke="none" fill="#2b2b2b" fill-rule="evenodd"/>
</svg>