<svg xmlns="http://www.w3.org/2000/svg" width="100" height="57" viewBox="0 0 100 57" version="1.1">
	<path d="M 25.675 0.658 C 24.615 1.719, 27.012 3.933, 28.573 3.334 C 30.637 2.541, 30.328 0, 28.167 0 C 27.158 0, 26.037 0.296, 25.675 0.658 M 33.638 1.500 C 33.955 2.325, 33.867 3.787, 33.443 4.750 C 33.020 5.713, 32.634 6.950, 32.586 7.500 C 32.539 8.050, 31.262 8.642, 29.750 8.816 C 28.238 8.990, 27 9.457, 27 9.853 C 27 10.694, 17.502 9.635, 11 8.068 C 8.525 7.472, 5.037 6.704, 3.250 6.361 L -0 5.738 -0 19.786 C -0 30.088, 0.333 33.968, 1.250 34.338 C 2.250 34.741, 2.250 34.858, 1.250 34.921 C 0.563 34.964, 0 36.125, 0 37.500 C 0 39.333, 0.533 40, 2 40 C 3.268 40, 3.971 40.640, 3.921 41.750 C 3.874 42.795, 3.639 42.997, 3.338 42.250 C 2.400 39.927, 0 40.903, 0 43.607 C 0 45.594, 0.383 46.067, 1.611 45.596 C 2.764 45.153, 3.058 45.407, 2.643 46.489 C 1.801 48.682, 4.255 48.351, 6.268 46 C 8.058 43.910, 10 43.346, 10 44.917 C 10 45.421, 9.438 46.040, 8.750 46.293 C 8.063 46.546, 8.724 47.079, 10.220 47.478 C 12.138 47.988, 13.413 47.730, 14.542 46.601 C 16.010 45.133, 15.981 45, 14.194 45 C 11.501 45, 9.690 42.710, 11.193 41.207 C 12.054 40.346, 11.738 39.821, 9.920 39.094 C 8.589 38.562, 8.063 38.098, 8.750 38.063 C 10.838 37.958, 10.161 36.034, 7.029 33.174 C 3.571 30.015, 2.486 25.420, 5.250 25.639 C 6.213 25.715, 7 25.378, 7 24.889 C 7 24.400, 6.213 23.964, 5.250 23.921 C 4.135 23.871, 3.969 23.654, 4.793 23.323 C 5.504 23.038, 7.192 23.082, 8.543 23.421 C 11.049 24.050, 11.845 26.752, 10.054 28.550 C 8.456 30.155, 12.303 34.053, 16.394 34.976 C 19.909 35.769, 20.150 35.682, 19.657 33.796 C 18.953 31.105, 22.198 23.048, 26.741 16.203 C 31.315 9.312, 32.109 10.860, 28.088 18.826 C 26.355 22.260, 24.375 28.591, 23.451 33.658 C 20.805 48.159, 20.974 47.569, 19.931 45.948 C 19.123 44.690, 18.872 44.697, 18.026 46 C 17.321 47.087, 17.473 47.592, 18.579 47.834 C 21.263 48.420, 18.121 50.952, 15.163 50.587 C 13.698 50.406, 13.068 50.459, 13.762 50.705 C 14.456 50.950, 14.776 51.554, 14.471 52.046 C 13.588 53.476, 18.994 54.409, 20.323 53.056 C 21.234 52.129, 20.823 51.993, 18.500 52.452 C 16.182 52.911, 15.962 52.839, 17.535 52.135 C 18.654 51.634, 20.156 50.517, 20.872 49.654 C 21.741 48.607, 23.104 48.271, 24.966 48.643 C 26.685 48.987, 28.059 48.713, 28.543 47.931 C 29.112 47.009, 28.830 46.851, 27.518 47.355 C 25.838 47.999, 25.757 47.527, 26.382 40.775 C 26.752 36.774, 27.495 33.349, 28.034 33.165 C 28.572 32.980, 28.753 32.409, 28.435 31.895 C 27.501 30.384, 30.004 24.068, 31.950 23.027 C 32.934 22.500, 34.474 20.521, 35.372 18.629 C 36.682 15.868, 37.433 15.300, 39.171 15.755 C 40.875 16.201, 41.204 15.974, 40.712 14.693 C 40.369 13.797, 40.571 12.765, 41.161 12.400 C 41.882 11.955, 42.106 13.096, 41.841 15.868 C 41.624 18.141, 41.797 20, 42.224 20 C 42.651 20, 43 20.640, 43 21.422 C 43 22.205, 44.601 23.373, 46.558 24.019 C 49.632 25.034, 50.061 25.555, 49.713 27.847 C 49.491 29.306, 49.498 29.938, 49.728 29.250 C 50.361 27.359, 51.786 27.751, 52.505 30.015 C 52.856 31.123, 53.562 31.771, 54.072 31.456 C 54.582 31.140, 55.052 31.921, 55.115 33.191 C 55.314 37.175, 54.835 39.474, 53.647 40.235 C 52.806 40.773, 52.825 40.973, 53.719 40.985 C 54.389 40.993, 54.700 41.617, 54.411 42.371 C 53.700 44.225, 56.686 45.238, 59.082 43.956 C 60.717 43.081, 61.180 43.344, 62.056 45.648 C 62.627 47.149, 63.023 49.305, 62.936 50.438 C 62.548 55.518, 63.014 57, 65 57 C 66.823 57, 67 56.333, 67 49.481 L 67 41.962 69.750 42.691 C 71.263 43.091, 73.513 43.372, 74.750 43.315 C 75.987 43.258, 77 43.614, 77 44.106 C 77 44.598, 76.394 45, 75.653 45 C 74.912 45, 73.817 46.012, 73.220 47.250 C 72.624 48.487, 72.105 48.938, 72.068 48.250 C 72.030 47.563, 71.534 47, 70.965 47 C 70.297 47, 70.254 47.621, 70.845 48.750 C 71.349 49.712, 71.538 51.962, 71.267 53.750 L 70.773 57 85.244 57 L 99.714 57 100.229 49.250 C 101.038 37.092, 101.165 9.283, 100.435 4.412 L 99.773 0 92.503 -0 C 84.532 -0, 84.156 0.329, 83.935 7.500 C 83.884 9.150, 83.615 9.938, 83.338 9.250 C 83.060 8.563, 82.141 8, 81.294 8 C 80.097 8, 80.010 8.307, 80.903 9.383 C 81.796 10.459, 81.665 10.915, 80.312 11.434 C 79.094 11.901, 77.581 11.049, 75.261 8.591 C 71.608 4.718, 66.330 2.784, 61.856 3.679 C 59.810 4.088, 58.309 3.703, 56.801 2.380 C 55.621 1.346, 54.985 1.063, 55.387 1.750 C 55.935 2.688, 54.729 3, 50.559 3 C 46.005 3, 45 3.306, 45 4.691 C 45 6.179, 44.833 6.154, 43.611 4.483 C 42.847 3.438, 42.446 2.002, 42.718 1.292 C 43.297 -0.217, 40.414 -0.479, 39.500 1 C 39.160 1.550, 38.432 2, 37.882 2 C 37.332 2, 37.160 1.550, 37.500 1 C 37.850 0.434, 37.021 -0, 35.590 -0 C 33.754 -0, 33.220 0.410, 33.638 1.500 M 0.397 20 C 0.397 27.975, 0.553 31.238, 0.743 27.250 C 0.932 23.262, 0.932 16.738, 0.743 12.750 C 0.553 8.762, 0.397 12.025, 0.397 20 M 51.525 10.945 C 50.546 13.115, 49.968 16.051, 50.239 17.469 C 50.510 18.887, 50.342 20.289, 49.866 20.583 C 48.448 21.459, 48.882 23, 50.547 23 C 51.397 23, 52.860 24.347, 53.797 25.994 C 54.733 27.640, 55.897 28.990, 56.382 28.994 C 58.081 29.006, 64.023 21.846, 63.290 20.669 C 62.889 20.026, 62.680 18.580, 62.826 17.455 C 63.171 14.781, 56.957 7, 54.477 7 C 53.832 7, 52.503 8.775, 51.525 10.945 M 41 47.847 C 41 48.771, 40.152 48.973, 38.129 48.528 C 35.475 47.945, 35.295 48.091, 35.745 50.449 C 36.106 52.333, 35.810 53, 34.617 53 C 33.727 53, 33 53.407, 33 53.905 C 33 54.403, 30.413 54.686, 27.250 54.535 C 24.087 54.383, 23.188 54.452, 25.250 54.687 C 27.313 54.923, 29 55.539, 29 56.057 C 29 56.577, 33.021 57, 37.969 57 C 46.088 57, 46.877 56.834, 46.296 55.250 C 45.236 52.358, 41 46.436, 41 47.847 M 58.542 50.210 C 57.354 54.032, 57.091 57, 57.940 57 C 58.784 57, 60.364 49.030, 59.660 48.327 C 59.437 48.103, 58.934 48.951, 58.542 50.210 M 2.434 49.893 C 2.810 50.502, 4.021 51, 5.125 51 C 6.228 51, 8.040 51.486, 9.151 52.081 C 10.262 52.676, 11.396 52.937, 11.671 52.662 C 12.383 51.950, 9.082 50.362, 5.125 49.511 C 2.759 49.003, 1.954 49.117, 2.434 49.893" stroke="none" fill="black" fill-rule="evenodd"/>
</svg>